<?xml version="1.0" encoding="UTF-8"?>
<svg version="1.1" xmlns="http://www.w3.org/2000/svg" width="512" height="512">
<path d="M0 0 C2.29013653 3.4352048 2.17842973 4.985331 2 9 C2.66 8.67 3.32 8.34 4 8 C14.31758338 6.273297 27.54805237 4.71331743 37 10 C39.99095258 12.20088963 41.73998424 14.52321146 42.40234375 18.28515625 C42.64500505 24.25462426 42.64500505 24.25462426 40.46875 26.76953125 C39.74171875 27.37861328 39.74171875 27.37861328 39 28 C38.29875 27.2575 37.5975 26.515 36.875 25.75 C29.1829472 18.39238428 21.8762782 16.66062367 11.5625 16.875 C10.0350854 16.898008 8.50765924 16.92025664 6.98022461 16.94189453 C5.66675049 16.96106934 4.35327637 16.98024414 3 17 C-0.47000202 29.18812115 -3.65985136 41.41464296 -6.5625 53.75 C-6.75665497 54.57262329 -6.95080994 55.39524658 -7.15084839 56.24279785 C-9.45756452 66.04417512 -11.71779816 75.84918766 -13.5625 85.75 C-13.71855713 86.56823242 -13.87461426 87.38646484 -14.03540039 88.22949219 C-15.46879166 96.41094131 -15.74803105 104.09941072 -13 112 C-11.16455488 112.69921327 -11.16455488 112.69921327 -9 113 C7.88481736 102.28463513 14.18796303 74.7815945 18.3125 56.4375 C18.539375 55.303125 18.76625 54.16875 19 53 C18.39671875 52.84144531 17.7934375 52.68289063 17.171875 52.51953125 C13.33513333 51.39945022 10.53970026 50.47223772 7.5 47.8125 C5.59526613 44.24112399 4.80154362 41.01492521 5 37 C6.44916764 32.42368112 8.05994785 28.84559322 12 26 C15.36855977 25.15786006 17.86232946 24.71558236 21.25 25.5625 C23.84733921 27.69602864 24.72141906 29.89792759 26 33 C26.20597558 35.7188776 26.28948136 38.17641622 26.1875 40.875 C26.16719727 41.90753906 26.16719727 41.90753906 26.14648438 42.9609375 C26.1114837 44.64097001 26.05768954 46.3205935 26 48 C26.7734375 47.95359375 27.546875 47.9071875 28.34375 47.859375 C35.15450005 47.62335891 40.4414837 47.79251196 46 52 C50.5078427 56.31625939 52.17180979 60.24611291 52.4375 66.4375 C52.36348938 77.50208797 48.13956453 87.97604582 44.48828125 98.30078125 C40.50941953 109.45728579 40.50941953 109.45728579 42 121 C46.89766661 120.5802 48.86290755 118.68608362 52 115 C55.64166218 109.79293645 58.31492499 104.46078312 60.48046875 98.5 C60.92437202 97.28437378 60.92437202 97.28437378 61.37724304 96.04418945 C65.02960307 85.60848822 67.12730721 74.81700461 69.3125 64 C69.95292112 60.87622971 70.59755151 57.75345332 71.2495575 54.63208008 C71.64984092 52.71156358 72.04309464 50.78956448 72.42829895 48.8659668 C72.60576157 48.00656494 72.78322418 47.14716309 72.96606445 46.26171875 C73.19420586 45.13189575 73.19420586 45.13189575 73.42695618 43.97924805 C74 42 74 42 76 39 C79.5797952 38.08600973 81.46474216 37.82158072 85 39 C87.45270169 43.21021087 87.00075653 46.5913071 86.375 51.3125 C86.23602295 52.39990479 86.23602295 52.39990479 86.09423828 53.50927734 C85.35671817 59.03780176 84.39368973 64.52089629 83.42333984 70.01245117 C81.63640295 80.1556651 80.40532032 89.69221888 81 100 C82.73575649 100.87436418 82.73575649 100.87436418 85 101 C98.43935238 91.96272945 100.72937897 70.27797613 104.375 55.8125 C105.00763988 53.34792828 105.64174322 50.88373173 106.27734375 48.41992188 C107.66375654 43.04292943 109.03603867 37.66254623 110.39535522 32.27864075 C110.86702967 30.50110681 111.41844143 28.7446757 112 27 C111.38705078 27.19110352 110.77410156 27.38220703 110.14257812 27.57910156 C64.98767592 41.61190774 64.98767592 41.61190774 52 35 C49.38134909 32.98565314 48.26887111 31.68114014 47.0625 28.625 C46.97894191 25.11556042 48.25982589 22.99309947 50 20 C52.125 19.6875 52.125 19.6875 55 20 C56.48833762 21.2294963 57.9739595 22.46388729 59.41015625 23.75390625 C64.38980163 27.65687155 70.98455056 27.38072465 77 27 C81.14012587 26.39149876 85.21945904 25.55376519 89.3125 24.6875 C90.36373047 24.47416016 91.41496094 24.26082031 92.49804688 24.04101562 C99.71657784 22.55471699 106.86389343 20.83979622 114 19 C114.19335938 18.08476562 114.38671875 17.16953125 114.5859375 16.2265625 C114.84632813 15.03804688 115.10671875 13.84953125 115.375 12.625 C115.63023437 11.44164062 115.88546875 10.25828125 116.1484375 9.0390625 C117 6 117 6 119 4 C122.5 3.75 122.5 3.75 126 4 C128 6 128 6 128.1953125 9.0390625 C128.17210937 10.22242188 128.14890625 11.40578125 128.125 12.625 C128.10695313 13.81351562 128.08890625 15.00203125 128.0703125 16.2265625 C128.04710937 17.14179688 128.02390625 18.05703125 128 19 C128.70125 18.96519531 129.4025 18.93039062 130.125 18.89453125 C137.23454738 18.69167732 143.13267982 18.86970658 148.82421875 23.4765625 C151.84388296 26.55957631 153.37274581 28.93813707 153.5 33.3125 C153 37 153 37 151 39 C149.125 39 149.125 39 147 38 C145.66666667 36 144.33333333 34 143 32 C137.76647019 27.81317615 132.69868408 26 126 26 C120.65909826 47.22567587 115.53037982 68.38412839 112 90 C111.79761719 91.2375 111.59523438 92.475 111.38671875 93.75 C110.9529068 97.39577319 110.83119243 100.95380661 110.8125 104.625 C110.79832031 105.89601563 110.78414062 107.16703125 110.76953125 108.4765625 C110.98724335 111.8049746 111.55759517 114.02397107 113 117 C116.119224 117.5458642 118.23566724 117.46860878 120.96875 115.79296875 C126.3996516 111.33336301 129.84227507 106.22574176 133 100 C133.45375 99.10539062 133.9075 98.21078125 134.375 97.2890625 C137.24514526 91.05333024 138.66525504 84.96170988 139.69384766 78.22387695 C140.82380488 71.22077 142.64832494 64.450661 144.5625 57.625 C144.86784668 56.52454346 145.17319336 55.42408691 145.48779297 54.2902832 C147.7395256 46.3907116 147.7395256 46.3907116 150 43 C156.06288498 42.33859437 156.06288498 42.33859437 158.6953125 44.1965332 C161.53083154 48.11606522 160.46212462 53.41620619 160 58 C158.92653303 63.18360683 157.49552052 68.2393983 156 73.3125 C155.4225663 75.29791277 154.85004118 77.28436393 154.28808594 79.2742157 C153.78092334 81.06649991 153.25814782 82.85434503 152.734375 84.6418457 C151.50967094 90.24217958 151.48171491 94.80603701 154 100 C158.94616198 99.45042645 161.36049826 95.93990734 164.41503906 92.32568359 C168.52582217 87.13075286 171.03427465 81.8580892 173.375 75.6875 C173.72949219 74.79482422 174.08398438 73.90214844 174.44921875 72.98242188 C176.40690611 68.13422304 176.40690611 68.13422304 177 63 C175.72392391 61.2166156 175.72392391 61.2166156 174.0625 59.5 C169.50020636 54.58178274 169.59156943 49.94290791 169.6640625 43.42578125 C170.38144668 36.11013093 173.65891992 30.91622144 179 26 C184.10082366 21.96303528 188.1540216 20.50066011 194.6640625 20.6953125 C200.50396473 21.45703888 204.58019168 24.08142779 208.25 28.625 C211.32376589 33.07608175 213.22809485 37.91358993 215 43 C217.81602764 41.69097358 220.11257663 40.23554148 222.49609375 38.25 C223.13740234 37.7240625 223.77871094 37.198125 224.43945312 36.65625 C225.76917044 35.55400143 227.09730377 34.44983914 228.42382812 33.34375 C236.03539369 27.11402332 236.03539369 27.11402332 241.1328125 26.91796875 C246.41174435 27.63217718 246.41174435 27.63217718 248.76171875 29.1015625 C250.7225392 32.10774148 250.04033578 34.69121816 249.6875 38.1875 C249.50767578 40.09595703 249.50767578 40.09595703 249.32421875 42.04296875 C249.21722656 43.01878906 249.11023438 43.99460937 249 45 C249.35191406 44.43152344 249.70382812 43.86304688 250.06640625 43.27734375 C254.99906514 35.56281979 259.87936433 28.72018959 269 26 C272.86125387 25.47581448 276.09102003 25.62814456 279.75 27.125 C283.19511911 29.99593259 285.61831769 32.62084693 286.3515625 37.19140625 C286.76418801 48.87621058 282.16590983 59.59823803 277.5 70.0625 C270.6096363 85.44529348 270.6096363 85.44529348 269 102 C271.28694223 102.50379029 271.28694223 102.50379029 274 102 C277.97681667 98.20394773 279.64991053 95.60143144 280 90 C280.03703069 88.00034285 280.04760556 85.99943335 280 84 C286.36176484 82.65424205 286.36176484 82.65424205 289.19921875 84.19140625 C291.44886808 86.45081545 291.56750151 87.47405182 291.5625 90.625 C291.24013415 97.99643247 287.95561866 103.46787132 282.625 108.4375 C278.11444398 111.94462779 273.63880264 113.29772016 267.9375 112.875 C263.88006355 112.19089734 261.14708587 110.7079576 258 108 C253.21187205 100.23993056 253.69576229 92.75278267 255 84 C258.17182978 72.99410253 263.24492494 62.77284424 268.21777344 52.50097656 C269.15660279 50.55564589 270.08635096 48.60615876 271.015625 46.65625 C271.56508789 45.51994141 272.11455078 44.38363281 272.68066406 43.21289062 C273.96119693 40.09449452 274.59538501 37.33523757 275 34 C268.72378747 34.89024291 265.29808215 37.24603986 261.4375 42.25 C252.86515806 54.93943904 247.27025396 67.88821083 242.5625 82.375 C241.77394871 84.76160166 240.98163278 87.14690185 240.18675232 89.53140259 C239.69924855 90.99783613 239.21604566 92.46570826 238.73768616 93.93515015 C237.10897867 98.89102133 237.10897867 98.89102133 236 100 C228.72727273 100.46920821 228.72727273 100.46920821 226.0625 98.75 C222.19218207 92.3753587 223.97581464 83.5638306 225.52783203 76.64794922 C227.13892255 70.3690505 229.05695408 64.18270496 231 58 C231.47856445 56.46931885 231.47856445 56.46931885 231.96679688 54.90771484 C233.94602075 48.59477454 235.95739772 42.29270917 238 36 C233.46016701 39.29775037 229.16464804 42.58176863 225.25 46.625 C224.53328125 47.35976563 223.8165625 48.09453125 223.078125 48.8515625 C222.39234375 49.56054688 221.7065625 50.26953125 221 51 C220.27296875 51.5671875 219.5459375 52.134375 218.796875 52.71875 C216.07603557 56.1730331 216.2453332 59.58694734 216 63.875 C214.78494275 78.46538527 211.21285837 95.91757435 199.875 106.25 C195.41198128 109.62926465 192.22648436 111.23013919 186.5625 110.9375 C182.84238115 110.38133605 180.10217549 109.39442288 177.28515625 106.7421875 C174.69372237 103.22917987 173.35793092 99.11373191 172 95 C169.84776392 97.07537051 167.9220268 99.10396426 166.125 101.5 C163.08006739 105.08227366 160.38354531 107.61568243 155.6015625 108.38671875 C151.1714367 108.57962213 148.46893159 108.23035236 144.4375 106.25 C142.0607744 104.05609944 141.22652499 103.17134992 141 100 C140.34 100 139.68 100 139 100 C138.73316406 100.87914062 138.46632813 101.75828125 138.19140625 102.6640625 C134.74614868 112.3107837 127.85231898 121.64354328 118.50390625 126.22265625 C113.21078776 127.86591768 108.45233035 126.75306018 103.625 124.25 C98.04061729 119.46338625 97.41298799 114.66748427 96.8125 107.6875 C96.6897168 106.43356445 96.6897168 106.43356445 96.56445312 105.15429688 C96.36527231 103.10390612 96.18112718 101.05206438 96 99 C95.23042969 99.94101562 94.46085938 100.88203125 93.66796875 101.8515625 C90.55758675 105.65487718 87.6400689 108.53917231 82.60546875 109.41796875 C78.21979281 109.66125212 74.97824505 109.5058088 71.4375 106.75 C68.23212435 103.13367876 68.23212435 103.13367876 68 100 C67.34 100 66.68 100 66 100 C65.91234375 100.66128906 65.8246875 101.32257813 65.734375 102.00390625 C64.76669032 105.95185386 63.07648479 109.32146301 61.25 112.9375 C60.91484375 113.62779297 60.5796875 114.31808594 60.234375 115.02929688 C57.08027397 121.33152526 53.36676274 127.02831595 46.9609375 130.37109375 C43.19413751 131.57917104 39.74785417 131.07786032 36 130 C31.76912185 127.7006097 29.97395407 124.9008188 28.5078125 120.30859375 C25.90308421 108.4670982 30.1197267 96.60814344 33.82421875 85.43359375 C34.14124756 84.47171143 34.45827637 83.5098291 34.78491211 82.51879883 C35.41243274 80.63718941 36.05443038 78.76032511 36.71313477 76.8894043 C38.77348341 70.76785085 39.40612283 65.44763384 39 59 C38.35764404 58.70279053 37.71528809 58.40558105 37.0534668 58.09936523 C34.75524902 57.03601074 34.75524902 57.03601074 32.45703125 55.97265625 C29.97561196 54.99034559 27.62645164 54.44318456 25 54 C24.79246094 55.21171875 24.58492188 56.4234375 24.37109375 57.671875 C20.65080804 78.33018225 14.36071273 105.44899193 -2.875 119.3125 C-7.02259001 121.55219861 -10.35981036 122.72050977 -15.046875 121.44140625 C-20.6378521 119.07680128 -23.67777695 115.56011941 -26 110 C-26.69887529 107.33889794 -27.22548729 104.72305827 -27.640625 102.00390625 C-27.80167614 100.00792928 -27.80167614 100.00792928 -29 99 C-29.54527344 99.79664063 -29.54527344 99.79664063 -30.1015625 100.609375 C-33.25018049 105.03358694 -35.95644062 108.67220336 -41 111 C-45.85250204 111.75014524 -49.64125033 111.7359894 -54 109.375 C-56.26870488 106.68091295 -57.15060066 104.39759737 -58 101 C-58.66 101 -59.32 101 -60 101 C-60.23976562 101.88171875 -60.47953125 102.7634375 -60.7265625 103.671875 C-62.11976253 107.31299901 -63.74194033 109.39824767 -66.375 112.25 C-67.53128906 113.52617187 -67.53128906 113.52617187 -68.7109375 114.828125 C-72.11432756 118.05728007 -74.75180819 119.29944669 -79.4375 119.4375 C-82.98008055 119.34442728 -83.86811211 119.09461523 -86.875 116.9375 C-94.18626164 106.83075597 -93.86865828 95.6233786 -92 83.8125 C-90.22844586 73.78858349 -87.50072428 63.95407485 -84.86914062 54.12817383 C-83.09547574 47.46482101 -81.51529173 40.92732601 -80.68969727 34.06982422 C-80 32 -80 32 -78.15991211 30.70751953 C-74.73886373 29.58689127 -72.42431571 30.00383543 -69 31 C-66.77762922 33.70851438 -65.97468502 35.67246282 -66.04199219 39.20210266 C-66.66271124 45.11509817 -67.74091415 50.73368699 -69.25 56.48046875 C-69.46817383 57.33755936 -69.68634766 58.19464996 -69.91113281 59.07771301 C-70.60061043 61.78277524 -71.29958701 64.48525058 -72 67.1875 C-72.69913666 69.90075861 -73.39610241 72.61452925 -74.08886719 75.329422 C-74.51781833 77.00890315 -74.95053783 78.68742806 -75.38769531 80.36479187 C-76.98586993 86.59846574 -78.14554897 92.72484969 -78.125 99.1875 C-78.12757813 100.00605469 -78.13015625 100.82460938 -78.1328125 101.66796875 C-78.00525476 103.90773268 -77.62263167 105.85043827 -77 108 C-74.28799027 108 -72.55252717 107.4888853 -70.5078125 105.6796875 C-61.74081287 95.18654286 -59.69789813 79.1610488 -56.875 66.125 C-51.50326908 41.50326908 -51.50326908 41.50326908 -48 38 C-45.67724823 37.59952556 -43.34260643 37.2602896 -41 37 C-37.73772582 40.81173821 -37.56392046 43.17447383 -37.71582031 48.05224609 C-38.26416446 53.74013886 -39.58385297 59.25456244 -40.875 64.8125 C-46.49849862 83.47246862 -46.49849862 83.47246862 -45 102 C-41.1701078 101.67172353 -38.82724417 100.60887547 -36.2421875 97.71875 C-21.26149851 76.99075266 -18.49590062 43.39980327 -13 19 C-13.99435059 19.20278564 -14.98870117 19.40557129 -16.01318359 19.61450195 C-52.1237514 26.9381243 -52.1237514 26.9381243 -64 21 C-67.34139989 18.74818703 -69.7741584 16.9004051 -71 13 C-71.44444444 6.66666667 -71.44444444 6.66666667 -69 3 C-64.7670161 3.37349858 -62.73089877 4.94661703 -59.60546875 7.7265625 C-53.23011918 12.78340912 -45.52601862 13.19418761 -37.75 13.1875 C-36.97092285 13.18814453 -36.1918457 13.18878906 -35.38916016 13.18945312 C-27.17687998 13.11679269 -19.12158709 12.15141488 -11 11 C-10.81824219 9.93458984 -10.81824219 9.93458984 -10.6328125 8.84765625 C-10.46523437 7.92855469 -10.29765625 7.00945312 -10.125 6.0625 C-9.96257812 5.14597656 -9.80015625 4.22945313 -9.6328125 3.28515625 C-9.42398438 2.53105469 -9.21515625 1.77695312 -9 1 C-5.95699684 -0.52150158 -3.345915 -0.23899393 0 0 Z M188.8125 37.3125 C184.87455227 43.15152595 184.84516083 47.30193284 186 54 C186.75925781 53.96519531 187.51851563 53.93039062 188.30078125 53.89453125 C189.79158203 53.85392578 189.79158203 53.85392578 191.3125 53.8125 C192.29863281 53.77769531 193.28476562 53.74289062 194.30078125 53.70703125 C197 54 197 54 200 57 C202.64 55.02 205.28 53.04 208 51 C206.06076332 40.9251495 206.06076332 40.9251495 200 33 C195.3246687 30.51623025 192.02322331 33.91830678 188.8125 37.3125 Z M18 34 C15.65439945 36.82907671 15.65439945 36.82907671 16.3125 40.0625 C16.8600626 42.9131423 16.8600626 42.9131423 18 45 C18.66 45 19.32 45 20 45 C20 41.37 20 37.74 20 34 C19.34 34 18.68 34 18 34 Z M201.9765625 63.92578125 C200.09878261 64.9463138 198.24191012 65.7329027 196.25 66.5 C191.27110421 68.79795191 189.7325206 72.10823177 187.875 77.125 C185.12447773 85.05919886 183.95222839 92.04192968 187 100 C188.04387508 101.25110577 188.04387508 101.25110577 190.34375 101.26953125 C193.64232639 100.93482276 194.38130507 100.18096408 196.5 97.6875 C204.82151162 87.35797144 208.31674983 74.13678242 208 61 C205.76147242 61 203.86720169 62.81707308 201.9765625 63.92578125 Z " fill="#000000" transform="translate(221,302)"/>
<path d="M0 0 C3.03837805 2.80465666 3.8864838 4.5378269 4.875 8.5625 C4.99597623 11.88934639 4.83626701 13.29960733 3 16 C2.05125 15.67 1.1025 15.34 0.125 15 C-6.01416351 13.28847563 -12.28346873 12.89653239 -18.1875 15.5625 C-31.74899609 23.39378647 -37.46079166 38.69740005 -41.43359375 53.0546875 C-47.41899605 75.87795091 -50.52929331 99.41888905 -53.53515625 122.7890625 C-53.79335849 124.76061367 -54.05182006 126.73213089 -54.31054688 128.70361328 C-54.80897866 132.50411587 -55.27872118 136.30672033 -55.73242188 140.11279297 C-55.95737429 141.8565693 -56.18323988 143.60022815 -56.41015625 145.34375 C-56.53971458 146.52718491 -56.53971458 146.52718491 -56.67189026 147.73452759 C-57.42300968 153.2526599 -59.04673811 156.05323453 -63 160 C-66.45150232 161.72575116 -70.2189062 161.36104194 -74 161 C-78.69931465 159.01584493 -81.60550985 155.85354004 -83.84375 151.2734375 C-89.93540872 135.4960414 -88.57843082 116.04985669 -89.125 99.4375 C-89.21160173 96.96156615 -89.29883671 94.48565436 -89.38671875 92.00976562 C-89.59843828 86.00674494 -89.80237257 80.00350029 -90 74 C-90.13701324 74.58865341 -90.27402649 75.17730682 -90.41519165 75.78379822 C-91.86440233 82.00142899 -93.32720331 88.21575702 -94.79736328 94.4284668 C-95.34175524 96.73659234 -95.88286468 99.04549498 -96.42041016 101.35522461 C-108.69437177 154.05097602 -108.69437177 154.05097602 -129.9140625 168.8125 C-137.26355797 172.99648244 -144.78115033 173.98683903 -153 172 C-160.18109576 169.06456963 -166.04731607 163.21898073 -169.2890625 156.21484375 C-174.38285278 142.60086469 -175.79780286 125.11846535 -170.1953125 111.46484375 C-169.60363281 110.24474609 -169.60363281 110.24474609 -169 109 C-168.62617188 108.19691406 -168.25234375 107.39382813 -167.8671875 106.56640625 C-162.73261992 96.48429177 -155.93041468 89.58245649 -145 86 C-138.98686991 85.11571616 -133.9758735 85.06405992 -128.4375 87.6875 C-123.13272314 92.72023702 -120.7800462 96.71104371 -120 104 C-120.375 107.5625 -120.375 107.5625 -121 110 C-122.65 110 -124.3 110 -126 110 C-126.226875 109.38125 -126.45375 108.7625 -126.6875 108.125 C-127.86291624 105.87683053 -127.86291624 105.87683053 -130.0625 104.6875 C-134.87786387 103.56049995 -139.37937138 103.81460409 -143.92578125 105.87109375 C-152.23476091 111.19547318 -156.60445805 120.73723781 -159 130 C-160.79517896 139.28860339 -159.91585262 147.34514256 -156 156 C-152.84091655 160.48119483 -150.35717702 162.48213318 -145 164 C-138.3991767 163.26657519 -133.62398067 160.77201771 -129 156 C-113.5206719 135.64217838 -108.01012432 110.15332598 -102.5 85.6875 C-99.79205707 73.72823221 -97.03305651 61.80034807 -93.8203125 49.96484375 C-93.57744507 49.06674484 -93.33457764 48.16864594 -93.08435059 47.24333191 C-88.07635457 29.10228247 -88.07635457 29.10228247 -82 24 C-78.875 23.625 -78.875 23.625 -76 24 C-70.41175096 29.58824904 -71.94791654 41.85859382 -71.90234375 49.25146484 C-71.90914376 51.40464355 -71.92104273 53.55781095 -71.9375 55.7109375 C-71.94317993 57.46599106 -71.94317993 57.46599106 -71.94897461 59.25650024 C-71.96505526 64.18878795 -71.99300829 69.12098741 -72.02050781 74.05322266 C-74.43607766 108.71791466 -74.43607766 108.71791466 -68 142 C-67.81937012 140.74493652 -67.63874023 139.48987305 -67.45263672 138.19677734 C-65.32903472 123.46048875 -63.17556228 108.72870499 -61 94 C-60.85804199 93.03644592 -60.71608398 92.07289185 -60.56982422 91.08013916 C-50.17466122 20.61697903 -50.17466122 20.61697903 -30 4 C-20.85633758 -2.78984834 -10.48304819 -5.67451956 0 0 Z M-89 66 C-88 69 -88 69 -88 69 Z " fill="#000000" transform="translate(173,269)"/>
<path d="M0 0 C2.21850586 0.12158203 2.21850586 0.12158203 5 1 C6.73524749 3.00752815 8.0966844 4.83642396 9.50390625 7.0546875 C9.90906967 7.67086945 10.31423309 8.28705139 10.73167419 8.92190552 C11.58685024 10.23027036 12.43451427 11.54357165 13.27514648 12.86132812 C14.54360382 14.8454427 15.8386383 16.80990952 17.13867188 18.7734375 C25.73249202 31.93098736 30.22037245 44.03202809 29 60 C27.88979654 64.82779904 26.25522578 69.21206864 23.3984375 73.28125 C17.61966121 81.71662013 18.66202898 90.12729944 18.8984375 99.9375 C19.58421483 129.27048244 9.72053322 161.2205901 -9 184 C6.60652334 179.4902792 6.60652334 179.4902792 18.375 169.625 C18.96923464 168.10282259 19.50087419 166.55596026 20 165 C23.80373421 153.5767982 27.14133226 143.72527586 38.046875 137.16796875 C50.42896842 131.08059986 63.30285591 128.75196319 77 129 C77.9646421 132.69413152 78.01270334 134.95258185 76.7421875 138.546875 C76.44570313 139.3925 76.14921875 140.238125 75.84375 141.109375 C75.5240625 141.98078125 75.204375 142.8521875 74.875 143.75 C74.57851563 144.6059375 74.28203125 145.461875 73.9765625 146.34375 C69.48616045 158.90165405 63.18439705 169.71826641 51 176 C45.146581 178.60674049 40.35638261 179.18476782 33.99609375 178.75463867 C20.9314662 177.88033069 13.15574354 181.14615816 2.18261719 187.78613281 C-5.55211278 192.08781932 -15.44755368 195.21275333 -24.3125 195.0625 C-26.1378125 195.0315625 -26.1378125 195.0315625 -28 195 C-28.33 193.68 -28.66 192.36 -29 191 C-28.33613281 190.55269531 -27.67226563 190.10539063 -26.98828125 189.64453125 C-22.25003351 186.40038791 -17.86105387 183.29005986 -14 179 C-13.55527344 178.54753906 -13.11054688 178.09507812 -12.65234375 177.62890625 C-9.06940354 173.79754886 -6.37504696 169.52366208 -3.75 165 C-3.40864014 164.41871338 -3.06728027 163.83742676 -2.71557617 163.23852539 C-0.44520459 159.21580431 0.88925004 155.44299982 2 151 C1.20335937 150.32195312 0.40671875 149.64390625 -0.4140625 148.9453125 C-8.67689208 141.75277065 -16.1198674 134.28079562 -18 123 C-18.39589793 115.73613368 -18.61421384 108.86231132 -16 102 C-10.08049995 102.582587 -7.88702356 105.93305117 -4.21484375 110.27734375 C-3.48394531 111.17582031 -2.75304687 112.07429688 -2 113 C-1.40316406 113.68191406 -0.80632812 114.36382812 -0.19140625 115.06640625 C5.27396041 122.03100067 5.88383834 130.47213326 7 139 C11.7577474 121.42404966 16.35170939 101.1503457 12 83 C10.00580472 80.57056018 10.00580472 80.57056018 7.375 78.625 C-1.72094861 70.94340003 -9.33845491 61.1564064 -11 49 C-12.06710936 30.1278946 -8.84481703 16.55514446 0 0 Z " fill="#010101" transform="translate(432,81)"/>
<path d="M0 0 C2.2734375 0.07421875 2.2734375 0.07421875 5 1 C6.50013073 3.3175489 7.56306519 5.30336178 8.625 7.8125 C8.92349854 8.49683105 9.22199707 9.18116211 9.52954102 9.88623047 C13.61294627 19.51180076 15.25166854 28.17928237 15.375 38.625 C15.38909912 39.49592285 15.40319824 40.3668457 15.41772461 41.26416016 C15.31431352 55.13695369 9.42511307 66.82276865 -0.25 76.625 C-2.77105052 79.04426898 -5.08905491 81.05936994 -8 83 C-11.84484856 100.81595526 -8.53764164 121.87651237 -3 139 C-2.85304688 137.87722656 -2.70609375 136.75445312 -2.5546875 135.59765625 C-0.79530426 123.40453122 2.38705875 116.07168802 11.46875 107.5078125 C13.14819707 105.94780178 13.14819707 105.94780178 14.6875 103.5625 C15.120625 103.046875 15.55375 102.53125 16 102 C17.32 102 18.64 102 20 102 C23.60736326 111.46932856 23.22106671 122.17476399 19.3203125 131.4765625 C15.12574158 139.49340515 8.88453581 145.27069242 2 151 C7.02631156 168.73992316 17.720595 181.35720477 33 191 C32.67 192.32 32.34 193.64 32 195 C19.28989641 196.03755948 7.71506875 190.80565214 -3.24609375 185 C-3.86645508 184.67515625 -4.48681641 184.3503125 -5.12597656 184.015625 C-6.38724044 183.33208439 -7.62934692 182.61209646 -8.85058594 181.859375 C-15.5258959 177.98448889 -21.84184359 178.7607833 -29.3359375 179.15625 C-39.98965785 179.49626235 -48.81479672 175.79555123 -57 169 C-63.53719276 162.5029949 -66.77098012 154.49937418 -70 146 C-70.42796875 144.88109375 -70.8559375 143.7621875 -71.296875 142.609375 C-74.3874916 134.01492062 -74.3874916 134.01492062 -73 129 C-57.22513929 127.97615087 -39.4352924 132.00405828 -27.30078125 142.46484375 C-22.94673343 146.78111241 -20.85705097 151.33261395 -18.8125 157 C-18.55791016 157.70406982 -18.30332031 158.40813965 -18.04101562 159.13354492 C-17.04600398 161.93119476 -16.08342002 164.72179212 -15.23046875 167.56640625 C-13.17174065 173.1921285 -8.7445384 175.19512702 -3.57958984 177.62353516 C1.83854268 180.03520458 7.36563214 182.1487077 13 184 C12.27296875 183.08734375 12.27296875 183.08734375 11.53125 182.15625 C-5.83614898 159.44503595 -15.57965562 128.44157527 -14.90625 99.875 C-14.88401367 98.81861328 -14.86177734 97.76222656 -14.83886719 96.67382812 C-14.78119665 94.61416624 -14.69497419 92.55503156 -14.57519531 90.49804688 C-14.33073022 82.68042112 -16.6834646 78.36361098 -21 72 C-26.69368215 59.88189575 -26.27903452 47.80257656 -22.2421875 35.21875 C-20.36718569 30.36025473 -17.92024013 26.29684248 -15 22 C-14.01540538 20.50881613 -13.03248964 19.01652307 -12.05078125 17.5234375 C-9.94608254 14.33446136 -7.83468942 11.15027369 -5.70703125 7.9765625 C-5.2581958 7.30705566 -4.80936035 6.63754883 -4.34692383 5.94775391 C-2.94794397 3.92472304 -1.48794721 1.95827064 0 0 Z " fill="#010101" transform="translate(76,81)"/>
<path d="M0 0 C6.91865969 4.5752427 11.23296474 10.78402068 13.56640625 18.69921875 C14.78372752 26.12720456 16.63842399 38.52393327 13.1796875 45.44140625 C7.8996875 45.44140625 2.6196875 45.44140625 -2.8203125 45.44140625 C-3.0884375 43.54390625 -3.3565625 41.64640625 -3.6328125 39.69140625 C-4.35761404 35.05369011 -5.16196743 30.45837536 -6.1953125 25.87890625 C-6.40929687 24.92886719 -6.62328125 23.97882813 -6.84375 23 C-8.01651401 19.92735828 -9.21069931 18.43672111 -11.8203125 16.44140625 C-16.18591807 15.53989095 -20.45192236 15.95486753 -24.6328125 17.44140625 C-34.80091829 26.73796011 -34.21587767 40.6109384 -34.8203125 53.44140625 C-37.2081372 85.6379103 -37.2081372 85.6379103 -27.51953125 115.1796875 C-24.42840177 118.41671099 -22.46567243 119.3885079 -18.0078125 119.75390625 C-14.92472946 119.6980533 -13.80322838 119.43191507 -11.0078125 117.87890625 C-6.0168886 112.31759105 -5.18740271 105.78510069 -4.2578125 98.62890625 C-4.03495008 96.93387838 -3.80482548 95.23978475 -3.56640625 93.546875 C-3.47029053 92.80590576 -3.3741748 92.06493652 -3.27514648 91.30151367 C-2.8203125 89.44140625 -2.8203125 89.44140625 -0.8203125 87.44140625 C2.40234375 87.2109375 2.40234375 87.2109375 6.2421875 87.25390625 C8.14677734 87.26357422 8.14677734 87.26357422 10.08984375 87.2734375 C13.1796875 87.44140625 13.1796875 87.44140625 14.1796875 88.44140625 C15.53779585 102.64930898 13.00995851 119.44484145 3.9296875 130.75390625 C-0.82472055 135.89768392 -7.01120751 139.15976334 -14.04296875 139.6796875 C-25.10099567 139.89342352 -33.60376411 138.46202608 -41.875 130.609375 C-56.89801355 113.8668599 -58.22645898 93.87336459 -58.1328125 72.44140625 C-58.13098969 71.58001038 -58.12916687 70.7186145 -58.12728882 69.83111572 C-58.04579739 46.97688463 -57.09944109 24.81723936 -41.4453125 6.69140625 C-30.25920692 -2.89668425 -13.76507926 -6.65080429 0 0 Z " fill="#000000" transform="translate(170.8203125,103.55859375)"/>
<path d="M0 0 C7.89968449 6.6429165 11.48105388 14.93256642 13 25 C14.03960749 38.42945023 12.51002312 51.15458592 4 62 C-0.20172793 66.33448395 -4.42296731 70.5327413 -10 73 C-7.7335247 82.13065763 -2.90596153 89.87676678 5.1484375 95.00390625 C13.56199717 99.53018835 21.6431235 99.33285331 31 99 C33.60185823 103.50361806 33.85403113 107.91067163 33 113 C27.92412494 117.78582505 20.08310925 117.34804361 13.48046875 117.2734375 C1.70872019 116.34860877 -6.67808299 110.72719216 -14.625 102.375 C-20.55639331 95.26564306 -25.08803113 87.2716835 -26 78 C-27.98 78.495 -27.98 78.495 -30 79 C-29.98952637 79.76143311 -29.97905273 80.52286621 -29.96826172 81.30737305 C-29.92660981 84.7673816 -29.9006444 88.22733731 -29.875 91.6875 C-29.84986328 93.48477539 -29.84986328 93.48477539 -29.82421875 95.31835938 C-29.81777344 96.47529297 -29.81132812 97.63222656 -29.8046875 98.82421875 C-29.79421387 99.88729248 -29.78374023 100.95036621 -29.77294922 102.0456543 C-30.00624569 105.08126781 -30.71794865 107.25623267 -32 110 C-33.95764383 110.19456705 -35.91615321 110.38044247 -37.875 110.5625 C-38.96554687 110.66691406 -40.05609375 110.77132812 -41.1796875 110.87890625 C-44 111 -44 111 -46 110 C-47.06217761 106.25672799 -47.12883211 102.64635528 -47.1328125 98.7734375 C-47.13498779 97.46310547 -47.13716309 96.15277344 -47.1394043 94.80273438 C-47.13531377 93.32682078 -47.1304842 91.85090908 -47.125 90.375 C-47.12311676 89.61775635 -47.12123352 88.8605127 -47.11929321 88.08032227 C-47.10370551 82.55451649 -47.06791831 77.02895978 -47.02606201 71.5032959 C-47.00232064 68.31194461 -46.98109942 65.12058333 -46.96018219 61.92921257 C-46.91004346 54.41681525 -46.84461949 46.90470947 -46.76107025 39.39260674 C-46.71854276 35.56373805 -46.680586 31.73496122 -46.65411377 27.90594482 C-46.62830334 24.24210622 -46.58794027 20.57869852 -46.53693962 16.9151268 C-46.52027857 15.54676383 -46.50865416 14.17832919 -46.50235176 12.8098793 C-46.49273401 10.91675338 -46.46299979 9.02376198 -46.43237305 7.13085938 C-46.42126999 6.06331421 -46.41016693 4.99576904 -46.39872742 3.89587402 C-45.9407831 0.56992 -45.00712595 -1.32609425 -43 -4 C-29.07268166 -9.87151694 -12.42117119 -8.3454744 0 0 Z M-29 10 C-29 26.83 -29 43.66 -29 61 C-19.68256982 58.92945996 -14.83534783 56.7583046 -9.58203125 48.87109375 C-5.24234942 40.61473157 -4.79100401 31.64145279 -7.25 22.6875 C-8.99485742 17.50973704 -11.07890193 14.32647248 -15.625 11.1875 C-19.97588433 9.44682298 -19.97588433 9.44682298 -29 10 Z " fill="#000000" transform="translate(315,123)"/>
<path d="M0 0 C0.83305664 0.01353516 1.66611328 0.02707031 2.52441406 0.04101562 C11.14355216 0.32932596 18.37931882 1.74395255 24.6875 8 C31.2032216 16.76538455 31.15326452 27.81277618 31.02368164 38.3203125 C30.99978543 40.39361666 31.00318569 42.46565256 31.00976562 44.5390625 C30.98393514 50.74663258 30.69273815 55.48428554 28.6875 61.5 C14.8275 61.5 0.9675 61.5 -13.3125 61.5 C-13.29701737 74.97549032 -13.29701737 74.97549032 -7.5 86.4375 C-3.33520396 88.46040093 -0.22228893 88.74433196 4.265625 87.5390625 C5.47734375 87.07242188 6.6890625 86.60578125 7.9375 86.125 C9.77054687 85.43277344 9.77054687 85.43277344 11.640625 84.7265625 C14.54359281 83.60563877 14.54359281 83.60563877 16.6875 82.5 C19.5 81.9375 19.5 81.9375 22.6875 82.5 C24.96462865 84.88115991 26.59657774 87.39005745 27.6875 90.5 C27.53633352 93.61308472 27.20351919 94.98985802 24.97265625 97.1953125 C14.14441566 104.16040223 3.40797685 105.93613046 -9.3125 104.5 C-16.91297432 102.60751242 -21.59286102 98.20091886 -25.9375 91.8125 C-30.54976557 83.95892239 -31.78039828 76.11677261 -31.5625 67.125 C-31.54936768 66.1767334 -31.53623535 65.2284668 -31.52270508 64.25146484 C-31.47301281 61.33343812 -31.39623165 58.41723059 -31.3125 55.5 C-31.29171387 54.60796875 -31.27092773 53.7159375 -31.24951172 52.796875 C-30.41006557 19.56724368 -30.41006557 19.56724368 -20 6.625 C-13.6524019 1.60596895 -8.05658047 -0.18925948 0 0 Z M-6.4375 18.4375 C-11.78353657 27.16935973 -11.60085101 37.53691412 -12.3125 47.5 C-2.7425 47.5 6.8275 47.5 16.6875 47.5 C16.72875 44.550625 16.77 41.60125 16.8125 38.5625 C16.83070801 37.65250244 16.84891602 36.74250488 16.86767578 35.80493164 C16.91344251 28.9421368 16.59407618 22.27320172 12.625 16.5 C5.55348165 11.68534921 -0.35746607 12.89393965 -6.4375 18.4375 Z " fill="#000000" transform="translate(368.3125,113.5)"/>
<path d="M0 0 C9.6927989 8.15076272 12.19351226 18.18794561 13.75 30.3125 C14.00231295 34.3058408 14.03151538 38.2808276 14.015625 42.28125 C14.01753845 43.36458618 14.0194519 44.44792236 14.02142334 45.56408691 C14.02277283 47.82951086 14.01916378 50.09494287 14.01074219 52.36035156 C13.99994071 55.8315544 14.01072253 59.30224959 14.0234375 62.7734375 C14.02211732 64.98437614 14.01955787 67.19531446 14.015625 69.40625 C14.01967346 70.44164917 14.02372192 71.47704834 14.02789307 72.54382324 C14.01843658 73.986828 14.01843658 73.986828 14.00878906 75.45898438 C14.00719788 76.3021521 14.00560669 77.14531982 14.00396729 78.01403809 C13.75 80.3125 13.75 80.3125 11.75 84.3125 C8.12 84.3125 4.49 84.3125 0.75 84.3125 C0.09 82.6625 -0.57 81.0125 -1.25 79.3125 C-1.86746094 79.72242188 -2.48492187 80.13234375 -3.12109375 80.5546875 C-12.98789025 86.83219273 -21.59742372 88.73831514 -33.25 86.3125 C-40.39492613 83.33101071 -44.74002499 78.07068917 -48.25 71.3125 C-51.82019141 62.38702147 -50.76246628 53.98919418 -47.50390625 45.14453125 C-44.55424199 38.48251695 -40.60832263 33.44954498 -33.99609375 30.16015625 C-24.32160974 27.1738646 -14.17498764 28.91421473 -5.25 33.3125 C-4.26 33.9725 -3.27 34.6325 -2.25 35.3125 C-3.18874684 27.90134073 -4.32648277 21.73280092 -8.25 15.3125 C-13.14683657 12.04794229 -18.53201466 12.63573362 -24.25 13.3125 C-27.11625786 14.52514755 -29.07138296 16.11607411 -31.25 18.3125 C-31.75402344 18.78945312 -32.25804687 19.26640625 -32.77734375 19.7578125 C-33.96662662 20.91085683 -35.11363776 22.10726732 -36.25 23.3125 C-40.14325923 22.01474692 -42.81532028 20.68359499 -45.25 17.3125 C-45.47776242 12.3017267 -43.06532674 8.96491974 -40.04296875 5.203125 C-29.22731185 -6.20161997 -13.39376882 -6.95445689 0 0 Z M-28.125 44.6875 C-31.43560343 49.47323625 -32.74082418 55.06901241 -31.87109375 60.81640625 C-30.45450974 65.72992906 -28.72340513 68.5596353 -24.25 71.3125 C-21.12143524 72.87678238 -18.72287869 72.59257086 -15.25 72.3125 C-9.94378111 70.46336311 -5.84649118 67.67188324 -2.25 63.3125 C-0.7537179 60.21305852 -1.00371897 56.71919366 -1.48828125 53.33984375 C-3.41941413 48.20005932 -9.18801914 45.88141832 -13.75 43.4375 C-19.28849962 41.65726798 -23.31098493 40.71070494 -28.125 44.6875 Z " fill="#000000" transform="translate(242.25,122.6875)"/>
<path d="M0 0 C0.90621094 0.20447754 1.81242187 0.40895508 2.74609375 0.61962891 C18.08548585 4.2099732 32.88096812 9.26278387 47.7414856 14.42858887 C60.36659583 18.81540775 72.95886548 23.0021671 86 26 C86.73831055 26.17208984 87.47662109 26.34417969 88.23730469 26.52148438 C108.00928903 30.97788708 127.55297722 31.05682876 145.25 19.97265625 C152.79884433 14.55764718 157.83686988 8.29660021 162.296875 0.1875 C164 -2 164 -2 166.703125 -2.8125 C167.46109375 -2.874375 168.2190625 -2.93625 169 -3 C171.31046802 0.46570203 171.23535415 2.29269543 170.65625 6.33984375 C167.93497038 17.37074507 161.34452387 26.15278872 151.6953125 32.00390625 C127.57286172 45.05939033 99.74954352 42.74821073 74.27557373 35.24641418 C63.17979025 31.93301174 52.15849575 28.38635631 41.1496582 24.79638672 C4.30848991 12.81237605 -39.2575582 0.16494437 -76.3125 17.97265625 C-83.94804904 21.94950471 -89.43571672 27.1630743 -93 35 C-95.3125 35.3125 -95.3125 35.3125 -98 35 C-100.29638315 32.70361685 -100.94722221 30.91895445 -101.1328125 27.6875 C-100.8162131 21.57899396 -99.4173097 17.29049698 -95 13 C-70.18957132 -7.226976 -29.74161835 -6.73580587 0 0 Z " fill="#000000" transform="translate(221,433)"/>
<path d="M0 0 C3.4375 0.1875 3.4375 0.1875 4.4375 1.1875 C4.58288368 2.85828818 4.66468734 4.53470757 4.71875 6.2109375 C4.75613281 7.231875 4.79351562 8.2528125 4.83203125 9.3046875 C4.86683594 10.37976563 4.90164063 11.45484375 4.9375 12.5625 C5.00637331 14.67461489 5.07911769 16.78660809 5.15625 18.8984375 C5.18654297 19.83993652 5.21683594 20.78143555 5.24804688 21.75146484 C5.34958755 24.32662555 5.34958755 24.32662555 6.4375 27.1875 C9.22815434 26.88580764 10.95973724 26.62172563 13.06640625 24.70703125 C15.11078296 20.95027062 14.96873713 17.3409805 15.0625 13.125 C15.11359891 11.50899712 15.16814572 9.89309865 15.2265625 8.27734375 C15.25290771 7.20794556 15.25290771 7.20794556 15.27978516 6.11694336 C15.4375 4.1875 15.4375 4.1875 16.4375 1.1875 C23.1875 0.0625 23.1875 0.0625 25.4375 1.1875 C26.22671028 44.30266454 26.22671028 44.30266454 16.66015625 55.21484375 C11.72316066 59.65083345 7.50388128 60.55088911 0.9453125 60.46484375 C-2.809247 60.04961988 -4.81749237 58.73165341 -7.5625 56.1875 C-10.10304608 52.49961053 -10.61290115 50.81247423 -10.25 46.3125 C-10.023125 45.28125 -9.79625 44.25 -9.5625 43.1875 C-4.8125 42.0625 -4.8125 42.0625 -2.5625 43.1875 C-2.10875 44.3425 -1.655 45.4975 -1.1875 46.6875 C0.03947988 50.18715279 0.03947988 50.18715279 2.3125 51.3125 C5.41646444 51.12991386 6.9843561 50.07453377 9.4375 48.1875 C12.39547979 44.38438313 12.97248083 40.93069553 13.4375 36.1875 C11.9525 36.6825 11.9525 36.6825 10.4375 37.1875 C5.13164624 37.52981315 1.69954172 37.71890599 -2.5625 34.1875 C-5.3752247 30.32218403 -5.9387335 27.60905519 -5.92578125 22.86328125 C-5.92513672 21.67025391 -5.92449219 20.47722656 -5.92382812 19.24804688 C-5.90771484 18.01119141 -5.89160156 16.77433594 -5.875 15.5 C-5.87822266 14.25154297 -5.88144531 13.00308594 -5.88476562 11.71679688 C-5.81673463 0.30614393 -5.81673463 0.30614393 0 0 Z " fill="#000000" transform="translate(276.5625,247.8125)"/>
<path d="M0 0 C1.82144531 -0.02513672 1.82144531 -0.02513672 3.6796875 -0.05078125 C8.22140263 0.42810708 10.83642904 1.88586786 13.875 5.25 C16.98329342 10.37868414 16.60059992 16.50690102 16.125 22.3125 C15.14388436 25.90567674 13.7908798 28.6466202 11.125 31.3125 C11.31646654 34.04934522 11.98113593 35.15960411 13.8671875 37.1640625 C14.57101562 37.74929688 15.27484375 38.33453125 16 38.9375 C16.69867188 39.52789062 17.39734375 40.11828125 18.1171875 40.7265625 C20.24174588 42.44843484 20.24174588 42.44843484 23.125 44.3125 C22.25 49.1875 22.25 49.1875 21.125 50.3125 C16.56942317 50.96329669 13.77602633 50.46018564 10.0625 47.875 C6.29677424 44.81854686 3.83242067 41.30504229 1.3515625 37.16796875 C0.25105466 35.16739464 0.25105466 35.16739464 -1.875 34.3125 C-1.85179687 35.01117188 -1.82859375 35.70984375 -1.8046875 36.4296875 C-1.77761719 37.79480469 -1.77761719 37.79480469 -1.75 39.1875 C-1.72679687 40.09242188 -1.70359375 40.99734375 -1.6796875 41.9296875 C-1.875 44.3125 -1.875 44.3125 -3.875 46.3125 C-6.375 46.625 -6.375 46.625 -8.875 46.3125 C-10.92539024 43.23691464 -11.12128216 42.689593 -11.05786133 39.23999023 C-11.04737259 38.42582138 -11.03688385 37.61165253 -11.02607727 36.77281189 C-11.00329208 35.8977449 -10.9805069 35.02267792 -10.95703125 34.12109375 C-10.93912033 33.2200441 -10.92120941 32.31899445 -10.90275574 31.39064026 C-10.86157361 29.48662415 -10.81499368 27.58271827 -10.76342773 25.67895508 C-10.68770873 22.75805176 -10.63877882 19.8375056 -10.59179688 16.91601562 C-10.54850106 15.06766953 -10.50363261 13.21935946 -10.45703125 11.37109375 C-10.44436722 10.49400253 -10.43170319 9.61691132 -10.4186554 8.71324158 C-10.33911133 6.25561523 -10.33911133 6.25561523 -9.875 2.3125 C-6.23103999 -0.11680667 -4.33587919 0.01375015 0 0 Z M-0.875 8.3125 C-0.875 14.9125 -0.875 21.5125 -0.875 28.3125 C1.105 27.9825 3.085 27.6525 5.125 27.3125 C7.89359446 23.15960831 8.0857339 19.2443223 8.125 14.3125 C7.35237205 11.31655043 7.35237205 11.31655043 6.125 9.3125 C3.815 8.9825 1.505 8.6525 -0.875 8.3125 Z " fill="#000000" transform="translate(376.875,246.6875)"/>
<path d="M0 0 C2.4375 0.375 2.4375 0.375 4.4375 2.375 C4.66455078 4.34619141 4.66455078 4.34619141 4.6328125 6.7265625 C4.62314453 8.00273438 4.62314453 8.00273438 4.61328125 9.3046875 C4.59652344 10.19414063 4.57976562 11.08359375 4.5625 12 C4.55347656 12.8971875 4.54445313 13.794375 4.53515625 14.71875 C4.5115497 16.93776586 4.4786231 19.15625077 4.4375 21.375 C5.73719143 20.78789671 7.03023513 20.18606286 8.3203125 19.578125 C9.40143311 19.07780762 9.40143311 19.07780762 10.50439453 18.56738281 C14.84655315 15.88904198 15.42065311 10.56645235 16.625 5.9375 C16.893125 4.761875 17.16125 3.58625 17.4375 2.375 C19.77044775 2.33258277 22.10452567 2.33407063 24.4375 2.375 C25.4375 3.375 25.4375 3.375 25.6875 6.25 C25.61267299 12.28604551 23.78552798 18.53297922 21.2109375 23.9609375 C20.15729992 26.32086265 20.15729992 26.32086265 21.296875 28.2734375 C21.67328125 28.96695313 22.0496875 29.66046875 22.4375 30.375 C22.703125 33.5390625 22.703125 33.5390625 22.6875 37 C22.69265625 38.14726563 22.6978125 39.29453125 22.703125 40.4765625 C22.4375 43.375 22.4375 43.375 20.4375 45.375 C17.3125 45.5 17.3125 45.5 14.4375 45.375 C12.64474134 42.25589144 12.09459282 39.69817572 11.8125 36.125 C11.73773438 35.23296875 11.66296875 34.3409375 11.5859375 33.421875 C11.53695313 32.74640625 11.48796875 32.0709375 11.4375 31.375 C9.1275 31.705 6.8175 32.035 4.4375 32.375 C4.31632812 33.00148437 4.19515625 33.62796875 4.0703125 34.2734375 C3.90273438 35.09070313 3.73515625 35.90796875 3.5625 36.75 C3.40007812 37.56210938 3.23765625 38.37421875 3.0703125 39.2109375 C2.4375 41.375 2.4375 41.375 0.4375 43.375 C-2.625 43.5625 -2.625 43.5625 -5.5625 43.375 C-7.17718925 41.76031075 -6.6923974 40.00348545 -6.6953125 37.7734375 C-6.69748779 36.81477783 -6.69966309 35.85611816 -6.7019043 34.8684082 C-6.69715088 33.8393335 -6.69239746 32.81025879 -6.6875 31.75 C-6.68339111 30.70996826 -6.67928223 29.66993652 -6.67504883 28.59838867 C-6.47618479 0.94773436 -6.47618479 0.94773436 0 0 Z " fill="#000000" transform="translate(270.5625,37.625)"/>
<path d="M0 0 C4.07409999 1.74371479 5.82673293 4.65944059 7.8125 8.5625 C10.52841937 17.14674515 10.85672831 26.42981508 8 35 C5.91448041 38.82345258 3.91766567 41.98822574 0 44 C-4.78125708 45.30656134 -8.73943787 45.48896712 -13.3125 43.4375 C-17.99733692 40.74978479 -20.30734113 37.0779766 -22 32 C-23.22805525 13.13626605 -23.22805525 13.13626605 -18 5 C-12.49131846 -0.37752245 -7.49334124 -0.91020812 0 0 Z M-11 12 C-13.77058215 18.09528073 -13.8170492 24.08800477 -11.8125 30.375 C-10.59965288 33.34880785 -10.24487266 33.86332689 -7.3125 35.5 C-6.549375 35.665 -5.78625 35.83 -5 36 C-0.53120395 32.23680332 1.4482671 28.77814823 2 23 C1.99180151 17.62178764 1.83172513 12.10541978 -2 8 C-6.43177766 6.97728208 -8.34612851 8.52251322 -11 12 Z " fill="#000000" transform="translate(208,244)"/>
<path d="M0 0 C2.33944736 0.28730055 4.6739143 0.61936779 7 1 C9.84235499 12.27846459 10.16633499 31.49327632 4.25 41.625 C1.08929554 44.96129915 -1.50706312 46.85465209 -6.2109375 47.12890625 C-10.1197786 46.91463423 -12.57892687 46.25981108 -15.9375 44.1875 C-23.01357247 33.25175163 -19.75637367 17.32321058 -19 5 C-12.84765625 4.90234375 -12.84765625 4.90234375 -11 5 C-9.14034925 6.85965075 -9.75912451 9.94889119 -9.68359375 12.44140625 C-9.62075195 14.39916992 -9.62075195 14.39916992 -9.55664062 16.39648438 C-9.51682392 17.7851533 -9.47711175 19.17382522 -9.4375 20.5625 C-9.39432011 21.95509183 -9.350706 23.34767028 -9.30664062 24.74023438 C-9.20014124 28.16004801 -9.09813077 31.57993763 -9 35 C-7.68 35.33 -6.36 35.66 -5 36 C-3.10427975 31.9402836 -2.64614306 28.4425872 -2.40234375 23.984375 C-2.36315323 23.32794006 -2.32396271 22.67150513 -2.28358459 21.99517822 C-2.1602431 19.91381959 -2.04805898 17.83207366 -1.9375 15.75 C-1.82202953 13.65376679 -1.7041128 11.55775639 -1.58070374 9.4619751 C-1.46991894 7.57100276 -1.36744989 5.67954874 -1.26538086 3.78808594 C-1 1 -1 1 0 0 Z " fill="#000000" transform="translate(354,249)"/>
<path d="M0 0 C3.64230086 3.42321509 4.35336269 8.25731025 5.5 12.9375 C5.71285645 13.78344727 5.92571289 14.62939453 6.14501953 15.50097656 C6.57138268 17.20448966 6.99348446 18.90907547 7.41113281 20.61474609 C7.92932503 22.71372535 8.47044392 24.80452458 9.0234375 26.89453125 C10.48478098 32.65276082 11.48641086 37.1894848 10 43 C7.69 43 5.38 43 3 43 C2.34 41.02 1.68 39.04 1 37 C-1.64 37.33 -4.28 37.66 -7 38 C-7.2165625 39.7015625 -7.2165625 39.7015625 -7.4375 41.4375 C-8 45 -8 45 -9 46 C-12 46.125 -12 46.125 -15 46 C-16.5793667 44.4206333 -16.14626743 42.8454131 -16.1484375 40.65625 C-16.08874483 34.86811907 -15.41814953 29.2274548 -14.625 23.5 C-14.49867188 22.53191406 -14.37234375 21.56382813 -14.2421875 20.56640625 C-13.85818651 17.7055989 -13.43689201 14.85317233 -13 12 C-12.79842285 10.576875 -12.79842285 10.576875 -12.59277344 9.125 C-12.37282715 7.77921875 -12.37282715 7.77921875 -12.1484375 6.40625 C-12.02388184 5.60509766 -11.89932617 4.80394531 -11.77099609 3.97851562 C-11 2 -11 2 -9.15087891 0.74804688 C-5.9440763 -0.36723612 -3.36070719 -0.3666226 0 0 Z M-4 14 C-4.33 18.62 -4.66 23.24 -5 28 C-3.35 28 -1.7 28 0 28 C-0.99 23.38 -1.98 18.76 -3 14 C-3.33 14 -3.66 14 -4 14 Z " fill="#000000" transform="translate(234,39)"/>
<path d="M0 0 C4.16625151 2.42400088 5.66719987 3.96056946 7.140625 8.5625 C8.22630812 13.37358794 8.33111764 18.08494246 8.3125 23 C8.32861328 23.85078125 8.34472656 24.7015625 8.36132812 25.578125 C8.36578878 31.39481916 7.46024897 35.71046471 5 41 C0.80686781 44.98858916 -2.05952269 46.37278003 -7.90234375 46.27734375 C-11.40903514 45.81370299 -13.38925777 44.30716755 -16 42 C-21.52672828 33.23346549 -20.89426623 22.12546031 -18.69140625 12.328125 C-17.33386342 7.75696384 -15.43953053 4.27501276 -11.8125 1.0625 C-7.77644347 -0.46223247 -4.25337008 -0.77878607 0 0 Z M-5 7 C-9.96772007 12.92921428 -10.2055417 16.99629245 -10.25 24.4375 C-10.270625 25.29666016 -10.29125 26.15582031 -10.3125 27.04101562 C-10.38105679 32.05272915 -10.38105679 32.05272915 -8.484375 36.59765625 C-7.06017831 38.26467945 -7.06017831 38.26467945 -4.6875 38 C-1.63958942 37.19979384 -1.63958942 37.19979384 -0.1875 33.6875 C2.32488641 25.67657649 1.62330944 17.49701978 -1.05078125 9.64453125 C-1.96324167 7.64361062 -1.96324167 7.64361062 -5 7 Z " fill="#000000" transform="translate(324,253)"/>
<path d="M0 0 C1.32634404 0.4508263 2.65057636 0.90791169 3.97265625 1.37109375 C4.65650391 1.60505859 5.34035156 1.83902344 6.04492188 2.08007812 C7.71024126 2.65071204 9.37298118 3.22886473 11.03515625 3.80859375 C10.70515625 6.44859375 10.37515625 9.08859375 10.03515625 11.80859375 C6.23947164 12.78658096 3.53455635 12.73512444 -0.27734375 11.87109375 C-1.16035156 11.67644531 -2.04335938 11.48179688 -2.953125 11.28125 C-3.61699219 11.12527344 -4.28085937 10.96929687 -4.96484375 10.80859375 C-5.62484375 12.78859375 -6.28484375 14.76859375 -6.96484375 16.80859375 C-2.01484375 18.78859375 -2.01484375 18.78859375 3.03515625 20.80859375 C3.03515625 22.45859375 3.03515625 24.10859375 3.03515625 25.80859375 C2.70515625 26.13859375 2.37515625 26.46859375 2.03515625 26.80859375 C-0.15534396 26.71841379 -2.34330975 26.56193167 -4.52734375 26.37109375 C-5.72488281 26.26925781 -6.92242187 26.16742188 -8.15625 26.0625 C-9.08308594 25.97871094 -10.00992187 25.89492187 -10.96484375 25.80859375 C-11.29484375 27.45859375 -11.62484375 29.10859375 -11.96484375 30.80859375 C-8.00484375 31.79859375 -4.04484375 32.78859375 0.03515625 33.80859375 C1.03515625 39.80859375 1.03515625 39.80859375 -0.96484375 42.80859375 C-8.13718421 42.25687525 -17.72291948 41.05051802 -22.96484375 35.80859375 C-22.62779271 28.97319871 -21.02168537 22.72358442 -19.08984375 16.18359375 C-18.70505859 14.83007812 -18.70505859 14.83007812 -18.3125 13.44921875 C-16.84688785 8.39690751 -15.28487502 3.53740065 -12.96484375 -1.19140625 C-8.92498159 -3.21133733 -4.125457 -1.3197816 0 0 Z " fill="#000000" transform="translate(334.96484375,51.19140625)"/>
<path d="M0 0 C1.42897367 2.26954642 1.99019296 3.80385926 2.125 6.5 C0.55225554 9.99498768 -1.69938116 10.74399897 -5.08984375 12.30078125 C-7 13 -7 13 -9 13 C-8.5831897 14.08099976 -8.5831897 14.08099976 -8.15795898 15.18383789 C-6.90126654 18.47067353 -5.66925046 21.76624059 -4.4375 25.0625 C-3.99986328 26.19623047 -3.56222656 27.32996094 -3.11132812 28.49804688 C0.80601383 39.07795466 0.80601383 39.07795466 -1 45 C-2 46 -2 46 -5.0625 46.0625 C-6.031875 46.041875 -7.00125 46.02125 -8 46 C-19 25.02061856 -19 25.02061856 -19 18 C-20.010625 18.495 -21.02125 18.99 -22.0625 19.5 C-25.80990756 21.09950323 -28.90566128 21.48168691 -33 21 C-35.1519437 17.77208445 -35.20086443 16.71599191 -35 13 C-9.04121396 -0.42925645 -9.04121396 -0.42925645 0 0 Z " fill="#000000" transform="translate(196,46)"/>
<path d="M0 0 C0.98484375 -0.00128906 1.9696875 -0.00257813 2.984375 -0.00390625 C4.02078125 -0.00003906 5.0571875 0.00382813 6.125 0.0078125 C7.67960938 0.00201172 7.67960938 0.00201172 9.265625 -0.00390625 C10.25046875 -0.00261719 11.2353125 -0.00132812 12.25 0 C13.16007812 0.00112793 14.07015625 0.00225586 15.0078125 0.00341797 C17.125 0.1328125 17.125 0.1328125 18.125 1.1328125 C18.25 4.6328125 18.25 4.6328125 18.125 8.1328125 C17.125 9.1328125 17.125 9.1328125 14.18359375 9.23046875 C12.39115234 9.21306641 12.39115234 9.21306641 10.5625 9.1953125 C8.76619141 9.18177734 8.76619141 9.18177734 6.93359375 9.16796875 C6.00675781 9.15636719 5.07992187 9.14476562 4.125 9.1328125 C4.125 12.1028125 4.125 15.0728125 4.125 18.1328125 C7.425 17.8028125 10.725 17.4728125 14.125 17.1328125 C16.69187367 20.983123 15.95788724 22.71851013 15.125 27.1328125 C11.495 27.1328125 7.865 27.1328125 4.125 27.1328125 C4.13660156 28.03644531 4.14820313 28.94007813 4.16015625 29.87109375 C4.16917969 31.05058594 4.17820313 32.23007812 4.1875 33.4453125 C4.19910156 34.61707031 4.21070313 35.78882813 4.22265625 36.99609375 C4.125 40.1328125 4.125 40.1328125 3.125 43.1328125 C-3.02734375 43.23046875 -3.02734375 43.23046875 -4.875 43.1328125 C-6.79757175 41.21024075 -6.00408424 38.35196142 -6.01394653 35.79406738 C-6.0119223 34.90554077 -6.00989807 34.01701416 -6.0078125 33.1015625 C-6.00876923 32.19531128 -6.00972595 31.28906006 -6.01071167 30.35534668 C-6.01139353 28.43530203 -6.00953882 26.51525509 -6.00537109 24.59521484 C-6.00002292 21.64545546 -6.00531588 18.69584836 -6.01171875 15.74609375 C-6.01105797 13.88541633 -6.00977681 12.024739 -6.0078125 10.1640625 C-6.00983673 9.27553589 -6.01186096 8.38700928 -6.01394653 7.47155762 C-5.98516758 0.00741788 -5.98516758 0.00741788 0 0 Z " fill="#000000" transform="translate(229.875,244.8671875)"/>
<path d="M0 0 C0.66 0 1.32 0 2 0 C2.00837891 0.71220703 2.01675781 1.42441406 2.02539062 2.15820312 C2.47108508 12.79500066 5.4145042 22.37601878 8.5 32.5 C9.27058328 35.0708627 10.03747944 37.64279288 10.80285645 40.21520996 C11.27646079 41.80238376 11.75372134 43.38847273 12.23522949 44.9732666 C14.12708572 51.23905227 15.12416821 56.71400137 15.0625 63.3125 C15.05347656 64.56675781 15.04445313 65.82101563 15.03515625 67.11328125 C15.02355469 68.06589844 15.01195312 69.01851563 15 70 C14.01 70 13.02 70 12 70 C11.98582031 69.41476563 11.97164063 68.82953125 11.95703125 68.2265625 C11.57050757 61.26913621 10.02157974 54.99696413 8.08813477 48.34936523 C6.29678095 42.16717424 4.72696087 35.95203935 3.25 29.6875 C3.03956055 28.79820801 2.82912109 27.90891602 2.61230469 26.99267578 C2.22690291 25.34982974 1.84596632 23.70592685 1.47045898 22.06079102 C1.11382045 20.49857727 0.74207158 18.93980342 0.36328125 17.3828125 C-0.15459701 13.98597659 -0.10511664 10.6132226 -0.0625 7.1875 C-0.05798828 6.49462891 -0.05347656 5.80175781 -0.04882812 5.08789062 C-0.03713156 3.39188932 -0.01919924 1.69593297 0 0 Z " fill="#DFDFDF" transform="translate(433,89)"/>
<path d="M0 0 C0.66 0 1.32 0 2 0 C2.42833917 16.08651539 -0.83987884 30.22436767 -5.3359375 45.5703125 C-7.70055773 53.71738047 -9.79281683 61.44898569 -10 70 C-10.99 70 -11.98 70 -13 70 C-14.0254739 56.03076669 -10.17217941 44.12009002 -6.14453125 30.90625 C-1.43703494 15.73996488 -1.43703494 15.73996488 0 0 Z " fill="#DFDFDF" transform="translate(77,89)"/>
<path d="M0 0 C1.875 1.125 1.875 1.125 3 3 C3.63074205 8.8869258 3.63074205 8.8869258 1.9375 11.875 C-1.13408409 13.65850044 -3.45638757 14 -7 14 C-10 12 -10 12 -12 9 C-12.125 5.375 -12.125 5.375 -11 2 C-7.3487558 -1.33828041 -4.64215415 -1.41282953 0 0 Z " fill="#000000" transform="translate(369,80)"/>
<path d="M0 0 C0.66 0.33 1.32 0.66 2 1 C1.34773438 1.51949219 0.69546875 2.03898438 0.0234375 2.57421875 C-1.78748714 4.01921909 -3.59597147 5.46728159 -5.40234375 6.91796875 C-6.84597998 8.07504862 -8.29316489 9.22787204 -9.75390625 10.36328125 C-13.36047823 13.22298819 -16.24233866 16.4871547 -19.23046875 19.95703125 C-25.03425312 26.65764765 -31.1643652 31.72483607 -39 36 C-39.66 36 -40.32 36 -41 36 C-39.87388667 32.62166 -39.31357592 32.28426438 -36.48828125 30.3671875 C-31.51804283 26.77923093 -27.43039829 22.52790415 -23.1875 18.125 C-8.03790538 2.67930179 -8.03790538 2.67930179 0 0 Z " fill="#E7E7E7" transform="translate(497,219)"/>
<path d="M0 0 C11.29713521 3.30587462 19.35694555 11.96885143 27.3125 20.25 C34.53362322 27.88557867 34.53362322 27.88557867 43 34 C41.3125 34.69921875 41.3125 34.69921875 39 35 C30.01072161 30.34272583 22.93533438 22.20360663 16 15 C13.23229316 12.18705576 10.46958322 9.46306352 7.4375 6.9375 C4.83096668 4.73503626 2.36760204 2.46230613 0 0 Z " fill="#DEDEDE" transform="translate(13,219)"/>
<path d="M0 0 C2.08477638 1.43777681 2.81239178 2.59798239 3.875 4.875 C4.05565151 7.94607567 2.73080642 9.53692932 1 12 C0 13 0 13 -3.375 13.25 C-7 13 -7 13 -8.9375 11.875 C-10.52990283 9.06487736 -10.45319325 7.17235276 -10 4 C-7.21052575 -0.0769239 -4.82207542 -0.71818145 0 0 Z " fill="#000000" transform="translate(150,80)"/>
<path d="M0 0 C2 2 2 2 2.3125 5.4375 C2 9 2 9 0.9375 10.9375 C-2.11092516 12.60921702 -4.60528797 12.37033222 -8 12 C-10 9 -10 9 -9.8125 5.4375 C-8.45771975 -0.29426258 -5.32443465 -0.45314337 0 0 Z " fill="#000000" transform="translate(307,312)"/>
<path d="M0 0 C0.625 2.8125 0.625 2.8125 1 6 C0.01 7.485 0.01 7.485 -1 9 C-4 9.3125 -4 9.3125 -7 9 C-7.66 8.34 -8.32 7.68 -9 7 C-8.75 3.4375 -8.75 3.4375 -8 0 C-5.13822943 -1.43088528 -3.06624227 -0.59991697 0 0 Z " fill="#000000" transform="translate(387,325)"/>
<path d="M0 0 C0.66 0 1.32 0 2 0 C1.7267705 7.37719652 -0.94971581 11.93854021 -5 18 C-5.85658203 19.30517578 -5.85658203 19.30517578 -6.73046875 20.63671875 C-8.13913753 22.76812495 -9.56173215 24.8885004 -11 27 C-11.75155533 24.77480676 -12.14006816 23.45111607 -11.43359375 21.17578125 C-11.10488281 20.56089844 -10.77617188 19.94601563 -10.4375 19.3125 C-9.88255859 18.27416016 -9.88255859 18.27416016 -9.31640625 17.21484375 C-7.92150682 14.8679358 -6.41979403 12.6257687 -4.875 10.375 C-2.57354394 7.02161579 -1.02055871 3.98017898 0 0 Z " fill="#E8E8E8" transform="translate(91,195)"/>
<path d="M0 0 C0.66 0 1.32 0 2 0 C2.20753906 0.60585937 2.41507812 1.21171875 2.62890625 1.8359375 C4.45959677 6.81480294 6.50565416 10.92539785 9.6875 15.1875 C12.70136409 19.26394438 13.89015218 21.94700006 14 27 C10.81531562 24.1942009 8.69745443 20.67161691 6.4375 17.125 C6.03853516 16.51269531 5.63957031 15.90039062 5.22851562 15.26953125 C2.02186824 10.2695168 -0.34917695 6.11059657 0 0 Z " fill="#EAEAEA" transform="translate(419,195)"/>
<path d="M0 0 C0.66 0.33 1.32 0.66 2 1 C1.42967041 1.55985596 0.85934082 2.11971191 0.27172852 2.6965332 C-2.30321452 5.22996609 -4.87041594 7.77110513 -7.4375 10.3125 C-8.33533203 11.19357422 -9.23316406 12.07464844 -10.15820312 12.98242188 C-11.43920898 14.25375977 -11.43920898 14.25375977 -12.74609375 15.55078125 C-13.53685303 16.33106689 -14.3276123 17.11135254 -15.14233398 17.9152832 C-17.20346621 19.95198715 -17.20346621 19.95198715 -18 23 C-20.66083969 24.99396257 -23.61242325 27 -27 27 C-25.87712211 23.63136633 -25.34447509 23.30600646 -22.53125 21.3984375 C-17.33348126 17.64629819 -12.97540505 13.19516118 -8.5 8.625 C-7.67757813 7.79355469 -6.85515625 6.96210938 -6.0078125 6.10546875 C-4.00052449 4.07484018 -1.99809466 2.03966833 0 0 Z " fill="#CCCCCC" transform="translate(483,228)"/>
<path d="M0 0 C0.66 0 1.32 0 2 0 C1.67 2.64 1.34 5.28 1 8 C0.01 8 -0.98 8 -2 8 C-1.34 5.36 -0.68 2.72 0 0 Z " fill="#D2D2D2" transform="translate(91,195)"/>
<path d="M0 0 C0.99 0.33 1.98 0.66 3 1 C0.82575883 3.50037734 -0.73045798 4.43628586 -4 5 C-3 2 -3 2 0 0 Z " fill="#D9D9D9" transform="translate(460,250)"/>
<path d="M0 0 C0.66 0 1.32 0 2 0 C2.66 2.31 3.32 4.62 4 7 C3.01 7.33 2.02 7.66 1 8 C0.67 5.36 0.34 2.72 0 0 Z " fill="#D0D0D0" transform="translate(419,195)"/>
</svg>
